<?xml version="1.0" encoding="UTF-8" standalone="no"?>
<!-- Created with Inkscape (http://www.inkscape.org/) -->

<svg
   width="210mm"
   height="297mm"
   viewBox="0 0 210 297"
   version="1.1"
   id="svg5"
   inkscape:version="1.2.2 (b0a8486541, 2022-12-01)"
   sodipodi:docname="spaceship.svg"
   xmlns:inkscape="http://www.inkscape.org/namespaces/inkscape"
   xmlns:sodipodi="http://sodipodi.sourceforge.net/DTD/sodipodi-0.dtd"
   xmlns="http://www.w3.org/2000/svg"
   xmlns:svg="http://www.w3.org/2000/svg">
  <sodipodi:namedview
     id="namedview7"
     pagecolor="#ffffff"
     bordercolor="#666666"
     borderopacity="1.0"
     inkscape:showpageshadow="2"
     inkscape:pageopacity="0.0"
     inkscape:pagecheckerboard="0"
     inkscape:deskcolor="#d1d1d1"
     inkscape:document-units="mm"
     showgrid="false"
     inkscape:zoom="1.2017607"
     inkscape:cx="284.58246"
     inkscape:cy="562.09195"
     inkscape:window-width="2560"
     inkscape:window-height="1576"
     inkscape:window-x="0"
     inkscape:window-y="280"
     inkscape:window-maximized="1"
     inkscape:current-layer="layer1" />
  <defs
     id="defs2" />
  <g
     inkscape:label="Layer 1"
     inkscape:groupmode="layer"
     id="layer1">
    <path
       style="fill:none;stroke:#00ff00;stroke-width:0.12;stroke-linecap:round;stroke-linejoin:round"
       d="m 57.714078,100.30494 c 0.603898,-0.386228 1.190638,-0.833416 1.829514,-1.169149 0.560059,-0.294317 1.146442,-0.536519 1.707205,-0.829495 1.098074,-0.573701 0.791203,-0.465272 1.6905,-0.904801 0.386951,-0.189119 0.773332,-0.379857 1.166768,-0.555082 0.478438,-0.213085 0.534259,-0.149098 0.976624,-0.424995 1.083001,-0.415939 1.864008,-1.282467 2.821027,-1.885146 0.484447,-0.305078 0.992865,-0.5706 1.481305,-0.869244 0.223334,-0.136551 0.431053,-0.297473 0.653245,-0.435877 0.582457,-0.362815 0.410388,-0.222861 0.924447,-0.502126 0.238532,-0.129585 0.468315,-0.275222 0.70967,-0.399463 1.973175,-1.015724 -1.395373,0.862061 1.976538,-0.92294 0.201782,-0.106821 0.367242,-0.274466 0.569124,-0.381093 0.251188,-0.132673 0.531506,-0.203851 0.784172,-0.333684 0.584391,-0.300297 1.135071,-0.664277 1.724163,-0.955247 0.191921,-0.0948 0.412067,-0.118679 0.610849,-0.198085 0.26839,-0.107212 0.657598,-0.289894 0.929499,-0.454018 0.232262,-0.1402 0.421429,-0.346209 0.65799,-0.479028 0.09433,-0.05296 0.213574,-0.04544 0.311243,-0.09195 0.03171,-0.01511 0.04099,-0.05704 0.06148,-0.08556 0.03246,-0.02946 0.05757,-0.07005 0.0974,-0.08839 0.438875,-0.202105 0.910873,-0.325168 1.353148,-0.519716 0.113046,-0.04973 0.208748,-0.133877 0.321752,-0.183695 0.02896,-0.01275 0.06795,0.01654 0.09494,0 0.01654,-0.01011 0,-0.03875 0,-0.05813 0.01662,-0.02786 0.02201,-0.06695 0.04987,-0.08358 0.193284,-0.115449 0.4175,-0.177118 0.602181,-0.305883 0.247635,-0.172653 0.458791,-0.392506 0.685456,-0.591888 0.03255,-0.02863 0.07008,-0.05453 0.09197,-0.09196 0.01098,-0.01879 -0.019,-0.05469 0,-0.06529 0.08524,-0.04755 0.194344,-0.04087 0.278616,-0.09013 0.280215,-0.05519 0.372462,-0.348737 0.586529,-0.484807 0.02633,-0.01675 0.06366,0.0088 0.09361,0 0.190108,-0.05559 0.318881,-0.235365 0.484454,-0.344072 0.269399,-0.176871 0.566764,-0.312515 0.821045,-0.510511 1.577043,-1.227963 -0.0181,-0.161843 1.088477,-1.067959 0.09431,-0.07722 0.22407,-0.103904 0.316108,-0.183814 0.02281,-0.01982 -0.02357,-0.07176 0,-0.09064 0.140833,-0.112744 0.316019,-0.17562 0.46309,-0.280096 0.17916,-0.127267 0.346538,-0.270605 0.513429,-0.413583 0.06568,-0.05627 0.111914,-0.134895 0.183478,-0.183465 0.02394,-0.01625 0.0615,0.014 0.08683,0 0.014,-0.0078 -0.01143,-0.03681 0,-0.04801 0.185568,-0.182015 0.699378,-0.433393 0.898927,-0.54506 0.05979,-0.03346 0.122624,-0.06116 0.183936,-0.09174 0.05952,-0.06368 0.103991,-0.145904 0.178559,-0.191042 0.08635,-0.05227 0.198736,-0.04575 0.288589,-0.09174 0.04092,-0.02096 0.04943,-0.08502 0.09175,-0.102947 0.04643,-0.01966 0.103026,0.01463 0.151281,0 0.01463,-0.0044 -0.0095,-0.03388 0,-0.04589 0.0075,-0.0095 0.02728,-0.0081 0.03623,0 0.154043,0.139647 0.04341,0.980998 -0.02862,1.188267 -0.02437,0.07013 -0.08626,0.12519 -0.102907,0.197549 -0.08356,0.363209 -0.140393,0.732258 -0.195787,1.100814 -0.01,0.06653 0.01566,0.136393 0,0.201822 -0.04616,0.192969 -0.188092,0.367818 -0.183695,0.566182 0.02111,0.951949 0.35043,1.878573 0.35043,2.833309 0,0.244922 0,0.489842 0,0.734761 0,0.06115 0.01654,0.12459 0,0.183465 -0.04542,0.161568 -0.123311,0.312192 -0.183372,0.468908 -0.06237,0.162742 -0.107854,0.332626 -0.183906,0.489439 -0.02135,0.04402 -0.0692,0.06919 -0.103794,0.10378 -0.126108,0.221621 -0.275897,0.431348 -0.378325,0.664856 -0.02646,0.06033 0.02951,0.138731 0,0.19763 -0.157858,0.315116 -0.435231,0.560428 -0.591902,0.876136 -0.04541,0.0915 -0.06002,0.195287 -0.09003,0.292928 -0.124238,0.302263 -0.225446,0.615051 -0.372708,0.906788 -0.331018,0.65577 -0.525801,0.590937 -0.733618,1.348743 -0.08519,0.310639 -0.05161,0.644443 -0.123735,0.958374 -0.08334,0.362754 -0.246126,0.703373 -0.340725,1.063352 -0.09479,0.360704 -0.115716,0.739582 -0.22664,1.095656 -0.508,1.630698 -0.383109,0.833122 -0.811771,1.9583 -0.264379,0.693962 -0.420108,1.424582 -0.633722,2.135812 -0.107108,0.35662 -0.233865,0.70734 -0.333605,1.06609 -0.997614,3.58832 0.92038,-2.772084 -0.760222,2.57921 -0.07563,0.24082 -0.116985,0.49251 -0.206055,0.7287 -0.472977,1.2542 -0.351811,0.29644 -0.770247,1.95974 -0.142933,0.56815 -0.07334,1.20264 -0.09172,1.77507 -0.116018,3.61254 0.133791,1.42124 -0.323903,3.15783 -0.04091,0.15521 -0.04214,0.32005 -0.09173,0.47271 -0.01336,0.0411 -0.06578,0.0572 -0.09164,0.0919 -0.06116,0.082 -0.123767,0.16452 -0.168267,0.25663 -0.12482,0.25835 0.292941,-0.15574 -0.09174,0.27503 -0.01598,0.0179 -0.04994,-0.009 -0.07203,0 -0.0094,0.004 -0.0055,0.0221 0,0.0307 0.08861,0.13885 0.202173,0.26204 0.279625,0.40741 0.08857,0.16621 0.131397,0.35381 0.215701,0.52222 0.01939,0.0387 0.07151,0.0537 0.09175,0.092 0.0127,0.0241 -0.01527,0.0591 0,0.0816 0.06316,0.0932 0.127563,-0.0122 0.08764,0.12983 -0.0748,0.26613 -0.352156,0.45459 -0.518454,0.64975 -0.07189,0.0844 -0.110464,0.19617 -0.191286,0.27203 -0.02394,0.0225 -0.07468,-0.0226 -0.09853,0 -0.04487,0.0425 -0.04477,0.11625 -0.0787,0.16792 -0.02379,0.0362 -0.06536,0.0577 -0.09196,0.092 -0.06242,0.0803 -0.10813,0.17322 -0.174234,0.25053 -0.08444,0.0988 -0.193638,0.17484 -0.275632,0.27563 -0.09723,0.11953 -0.167923,0.25862 -0.259657,0.38241 -0.13153,0.1775 -0.55866,0.48679 -0.643599,0.66229 -0.01214,0.0251 0.0072,0.0568 0,0.0837 -0.05237,0.19528 -0.09165,0.28558 -0.265851,0.40633 -0.02228,0.0155 -0.05421,0 -0.08131,0 -0.153088,0 -0.0804,-0.45559 -0.0804,-0.49743 0,-1.76319 0.02822,0.66146 -0.109868,-1.47066 -0.04311,-0.66562 0.03255,-1.33482 0,-2.00104 -0.02056,-0.42067 -0.09493,-0.83749 -0.116787,-1.25809 -0.01712,-0.3294 0,-0.65969 0,-0.98953 0,-0.88995 0,-1.7799 0,-2.66985 0,-0.22576 0.03401,-1.08294 0,-1.1106 -0.02865,-0.0233 -0.08878,0.0297 -0.110807,0 -0.05725,-0.0771 -0.05479,-0.18442 -0.09197,-0.27293 -0.140264,-0.33388 -0.2824,-0.6464 -0.364659,-1.01027 -0.04783,-0.21159 -0.0535,-0.43077 -0.09222,-0.6442 -0.0541,-0.29822 -0.137584,-0.59082 -0.186098,-0.89 -0.07109,-0.4384 0.135263,-0.10828 -0.09163,-0.6702 -0.04206,-0.10417 -0.14817,-0.17468 -0.187929,-0.27975 -0.05569,-0.14716 -0.05546,-0.30998 -0.09305,-0.46277 -0.0595,-0.24179 -0.117386,-0.48471 -0.198046,-0.72029 -0.452705,-0.97213 -0.03801,0.0632 -0.183465,-0.66799 -0.01304,-0.0656 -0.08057,-0.11298 -0.09014,-0.17914 -0.08488,-0.58678 0.115242,-0.29172 -0.105915,-0.82514 -0.02935,-0.0708 -0.139457,-0.0895 -0.162582,-0.1626 -0.08309,-0.26256 0.140375,-0.0705 -0.104076,-0.35364 -0.08124,-0.0941 -0.18497,0.16076 -0.371364,0.20262 -0.354632,0.0796 -0.726707,0.0438 -1.085792,0.10004 -0.367863,0.0576 -0.723241,0.18115 -1.090763,0.24092 -0.566153,0.0921 -3.215328,0.48115 -4.206642,0.5316 -0.889154,0.0452 -1.780609,0 -2.670916,0 -1.292516,0 -2.585035,0 -3.877551,0 -1.064627,0 -2.129255,0 -3.193883,0 -0.625245,0 -1.171593,-0.009 -1.783289,0.19487"
       id="path245" />
    <path
       style="fill:none;stroke:#00ff00;stroke-width:0.12;stroke-linecap:round;stroke-linejoin:round"
       d="m 68.407372,103.06797 c 0.143973,0.93643 0.225277,0.7845 0.05897,1.53353 -0.02106,0.0949 -0.07085,0.18185 -0.09197,0.27673 -0.04036,0.18136 -0.04082,0.37114 -0.09195,0.54977 -0.01191,0.0415 -0.06111,0.0611 -0.09166,0.0917 -0.02262,0.0774 -0.0579,0.15215 -0.06783,0.23215 -0.01646,0.13252 0.04304,0.2742 0,0.40062 -0.09147,0.2687 -0.231822,0.49344 -0.264694,0.78909 -0.02704,0.2432 0.04129,0.49291 0,0.7341 -0.08191,0.47841 -0.07447,0.0654 -0.180737,0.44136 -0.12238,0.43295 -0.07371,0.84817 -0.183465,1.28429 -0.136482,0.54229 -0.456215,1.13333 -0.628816,1.62643 -0.09155,0.26155 -0.146844,0.53446 -0.226547,0.79985 -0.105468,0.35119 -0.235315,0.6952 -0.328914,1.04974 -0.04469,0.16928 0,0.56842 0,0.73965 0,0.34729 0.02797,0.0173 -0.09186,0.35603 -0.06048,0.17097 0.03351,0.65133 0,0.86872 -0.113985,0.73938 -0.02893,0.12505 -0.182967,0.57278 -0.05256,0.15279 -0.03032,0.32462 -0.08186,0.47775 -0.04614,0.1371 -0.136324,0.25648 -0.183693,0.39315 -0.0093,0.0269 0.05688,0 0.08531,0 0.145847,0 -0.06336,0.006 0.275754,-0.0916 1.684642,-0.48318 0.01688,0.12373 1.585998,-0.63504 0.455945,-0.22047 0.41312,-0.1304 0.792339,-0.27682 0.0632,-0.0244 0.116652,-0.0728 0.182147,-0.0902 0.59277,-0.15666 -0.772194,0.59961 0.71936,-0.18797 0.236035,-0.12464 0.425847,-0.32477 0.658474,-0.45565 0.164039,-0.0923 0.348139,-0.14333 0.524245,-0.20976 0.09063,-0.0342 0.193622,-0.0405 0.275662,-0.092 0.02289,-0.0144 -0.02365,-0.068 0,-0.0811 0.04285,-0.0237 0.100422,0.0155 0.146859,0 0.231781,-0.0774 0.448874,-0.19417 0.679223,-0.27568 0.03138,-0.0111 0.06905,0.0126 0.09985,0 0.128526,-0.0526 0.242861,-0.1355 0.369657,-0.19214 0.01842,-0.008 0.04095,0.005 0.0605,0 0.222123,-0.0564 0.440507,-0.12688 0.662546,-0.18361 0.280754,-0.0717 0.570317,-0.11124 0.845592,-0.20176 0.23876,-0.0785 0.457772,-0.20793 0.690322,-0.30327 0.09093,-0.0373 0.191492,-0.0502 0.279355,-0.0943 0.09956,-0.0499 0.171468,-0.15305 0.278122,-0.18506 0.163714,-0.0491 0.352007,0.058 0.512794,0 0.01974,-0.007 -0.01484,-0.0481 0,-0.0629 0.01032,-0.0103 0.241274,-0.0709 0.281628,-0.0917 0.261943,-0.13495 0.160292,-0.23284 0.474927,-0.23284 0.165336,0 0.645612,-0.13676 0.795459,-0.18209 0.0673,-0.0204 0.124606,-0.0672 0.191903,-0.0876 0.03705,-0.0112 0.161758,0.0238 0.198837,0 0.03797,-0.0244 0.05855,-0.0722 0.09881,-0.0926 0.189579,-0.0961 0.537551,-0.12394 0.73066,-0.17923 0.09183,-0.0306 0.183658,-0.0612 0.275487,-0.0917 0.09011,0 0.182885,0.0218 0.270325,0 0.0047,-10e-4 0.21849,-0.15965 0.239165,-0.17161 0.01558,-0.009 0.06464,0.0145 0.05399,0 -0.0176,-0.024 -0.0663,-0.0113 -0.08117,-0.037 -0.05112,-0.0886 -0.05932,-0.19701 -0.106278,-0.28788 -0.01894,-0.0366 -0.06911,-0.0505 -0.08763,-0.0874 -0.02029,-0.0404 0.02207,-0.0962 0,-0.13561 -0.08197,-0.14659 -0.206113,-0.27092 -0.266335,-0.4277 -0.03175,-0.0827 0.01423,-0.17827 0,-0.26567 -0.0024,-0.0142 -0.03652,0.0127 -0.04328,0 -0.08338,-0.15709 -0.152218,-0.32187 -0.215742,-0.48798 -0.412411,-1.07847 -0.0164,-0.0988 -0.282082,-1.03763 -0.507765,-1.7944 0.01371,0.15261 -0.275204,-0.7102 -0.05533,-0.16523 0.01947,-0.34959 0,-0.52275 -0.03639,-0.32344 -0.222287,-0.60315 -0.275421,-0.918 -0.0149,-0.0882 0.01945,-0.18102 0,-0.26832 -0.154419,-0.69338 -0.06896,0.4067 -0.194643,-0.45778 -0.06114,-0.42054 0.06927,-0.87342 0,-1.29272 -0.136856,-0.82843 -0.06231,0.15363 -0.183695,-0.85773 -0.03402,-0.28347 0.0424,-0.31564 0,-0.61817 -0.0021,-0.0159 -0.03798,0.0124 -0.04807,0 -0.0401,-0.0495 -0.05391,-0.11594 -0.08898,-0.16911 -0.01722,-0.0261 -0.0402,-0.0491 -0.06632,-0.0663 -0.0096,-0.006 -0.02843,0.01 -0.03447,0 -0.0098,-0.0158 0.01445,-0.0441 0,-0.0558 -0.04829,-0.0391 -0.122499,-0.0384 -0.168185,-0.0806 -0.04372,-0.0404 -0.04931,-0.10999 -0.08764,-0.15549 -0.05453,-0.0647 -0.366929,-0.28223 -0.366929,-0.43242 0,-0.0103 0.0072,0.0234 0,0.0308 -0.01931,0.0197 -0.05527,-0.002 -0.08276,0 -0.429638,0.0352 -0.860245,0.0611 -1.288555,0.10984 -0.578014,0.0658 -1.151141,0.19337 -1.716609,0.31996 -0.276561,0.0619 -0.828934,-0.0321 -1.083884,0 -0.06977,0.009 -0.120994,0.0718 -0.18348,0.10411 -0.06524,0.0305 -0.130488,0.0611 -0.195731,0.0916 -0.02582,0 -0.05353,-0.01 -0.07744,0 -0.172024,0.07 -0.322323,0.21405 -0.498753,0.27858 -0.02873,0.0105 -0.06434,-0.0135 -0.09178,0 -0.01355,0.007 0.0104,0.0343 0,0.0453 -0.05465,0.0576 -0.160406,-0.016 -0.23817,0 -0.412692,0.0848 -0.120087,0.0617 -0.446522,0.17676 -0.03025,0.0107 -0.127666,-0.0193 -0.157273,0 -0.03431,0.0224 -0.05339,0.0641 -0.08834,0.0855 -0.04079,0.025 -0.185748,0 -0.235495,0"
       id="path436" />
    <path
       style="fill:none;stroke:#00ff00;stroke-width:0.12;stroke-linecap:round;stroke-linejoin:round"
       d="m 97.314339,69.165837 c 1.244079,0.705818 1.244079,0.705818 0,0 z"
       id="path672" />
    <path
       style="fill:none;stroke:#00ff00;stroke-width:0.12;stroke-linecap:round;stroke-linejoin:round"
       d="m 106.54453,58.524221 c 0.3191,0.130763 0.82653,0.711388 0.9573,0.392287 0.13076,-0.3191 -1.28626,-0.495792 -0.9573,-0.392287 0.56387,0.177427 1.10641,0.41688 1.66353,0.614506 0.0216,0.0077 0.0499,-0.01294 0.0688,0 0.0126,0.0087 0.0186,0.202184 0.24209,0.202184 0.0166,0 -0.0331,0 -0.0497,0 -0.29506,0 -0.0454,0.0408 -0.12239,-0.06203 -0.009,-0.01238 -0.0323,0.0063 -0.0465,0 -0.0162,-0.0073 -0.0239,-0.02652 -0.0377,-0.03773 -0.11556,-0.09376 -0.21279,-0.219671 -0.35013,-0.276977 -0.44206,-0.184459 -1.77606,-0.189132 -1.36798,-0.439952 0.58962,-0.362397 1.39173,-0.0974 2.07625,0.0046 0.14311,0.02133 1.3431,0.714121 1.3431,1.017437"
       id="path674" />
    <path
       style="fill:none;stroke:#00ff00;stroke-width:0.12;stroke-linecap:round;stroke-linejoin:round"
       d="m 95.821277,75.136014 c 0.311353,0.190278 0.743778,0.882185 0.934055,0.570831 0.190278,-0.311351 -1.252122,-0.749657 -0.934055,-0.570831 0.59528,0.349906 1.190561,0.699815 1.785842,1.049724 0,0.0289 -0.01667,0.06308 0,0.08669 0.01175,0.01667 0.04237,-0.0079 0.06117,0 0.142996,0.06008 0.141504,0.07424 0.225835,0.168468"
       id="path676" />
  </g>
</svg>
